HIERARCHY
ROOT hip
{
	OFFSET 0.000000 0.000000 0.000000 
	CHANNELS 6 Xposition Yposition Zposition Xrotation Zrotation Yrotation
	JOINT abdomen
	{
		OFFSET 0.000000 3.402643 0.000000 
		CHANNELS 3 Xrotation Zrotation Yrotation
		JOINT chest
		{
			OFFSET 0.000000 8.438565 -0.680529 
			CHANNELS 3 Xrotation Zrotation Yrotation
			JOINT neck
			{
				OFFSET 0.000000 10.207942 -0.272212 
				CHANNELS 3 Xrotation Zrotation Yrotation
				JOINT head
				{
					OFFSET 0.000000 3.130431 0.000000 
					CHANNELS 3 Xrotation Zrotation Yrotation
					End Site
					{
						OFFSET 0.000000 3.130435 0.000000 
					}
				}
			}
			JOINT lCollar
			{
				OFFSET 3.470700 6.669187 -0.816635 
				CHANNELS 3 Yrotation Zrotation Xrotation
				JOINT lShldr
				{
					OFFSET 3.198488 0.000000 0.000000 
					CHANNELS 3 Zrotation Yrotation Xrotation
					JOINT lForeArm
					{
						OFFSET 10.139888 0.000000 0.000000 
						CHANNELS 3 Yrotation Zrotation Xrotation
						JOINT lHand
						{
							OFFSET 8.370511 0.000000 0.000000 
							CHANNELS 3 Zrotation Yrotation Xrotation
							End Site
							{
								OFFSET 4.083176 0.000000 0.000000 
							}
						}
					}
				}
			}
			JOINT rCollar
			{
				OFFSET -3.470700 6.669187 -0.816635 
				CHANNELS 3 Yrotation Zrotation Xrotation
				JOINT rShldr
				{
					OFFSET -3.198488 0.000000 0.000000 
					CHANNELS 3 Zrotation Yrotation Xrotation
					JOINT rForeArm
					{
						OFFSET -10.139888 0.000000 0.000000 
						CHANNELS 3 Yrotation Zrotation Xrotation
						JOINT rHand
						{
							OFFSET -8.370511 0.000000 0.000000 
							CHANNELS 3 Zrotation Yrotation Xrotation
							End Site
							{
								OFFSET -4.083176 0.000000 0.000000 
							}
						}
					}
				}
			}
		}
	}
	JOINT lThigh
	{
		OFFSET 5.308129 -1.633274 1.361059 
		CHANNELS 3 Xrotation Zrotation Yrotation
		JOINT lShin
		{
			OFFSET -2.041588 -20.007561 0.000000 
			CHANNELS 3 Xrotation Zrotation Yrotation
			JOINT lFoot
			{
				OFFSET 0.000000 -19.190928 -1.224953 
				CHANNELS 3 Xrotation Yrotation Zrotation
				End Site
				{
					OFFSET 0.000000 -2.449906 4.627600 
				}
			}
		}
	}
	JOINT rThigh
	{
		OFFSET -5.308129 -1.633274 1.361059 
		CHANNELS 3 Xrotation Zrotation Yrotation
		JOINT rShin
		{
			OFFSET 2.041588 -20.007561 0.000000 
			CHANNELS 3 Xrotation Zrotation Yrotation
			JOINT rFoot
			{
				OFFSET 0.000000 -19.190928 -1.224953 
				CHANNELS 3 Xrotation Yrotation Zrotation
				End Site
				{
					OFFSET 0.000000 -2.449906 4.627600 
				}
			}
		}
	}
}
MOTION
Frames: 13
Frame Time: 0.016667
-0.055752 46.835209 -1.696999 1.626627 6.984534 -20.490328 24.799145 -9.912794 4.390910 -3.320375 -5.737610 5.260798 27.938324 0.947265 -0.068350 -30.089428 6.831874 19.342144 10.959799 20.397612 20.357279 -93.834869 1.184651 20.026262 -48.580338 27.758747 25.374516 3.223318 -42.795956 -8.599859 -1.436618 -9.075163 24.414949 70.882866 39.869663 106.093994 -87.273880 -59.101456 -121.727287 43.470181 41.158447 8.535639 -19.628590 12.665730 20.043779 37.061893 -10.252110 -3.912340 -12.521729 0.160095 -4.963507 -49.542351 -18.170637 -2.240722 73.134247 12.177720 8.438849 -0.434225 -12.094732 15.447234 
-0.134586 47.006470 -1.753102 2.031087 6.858202 -20.445713 24.799145 -9.912794 4.390910 -3.666634 -5.523237 5.307481 27.333189 0.517577 -0.087887 -29.672056 7.713472 20.398287 11.579350 20.531948 20.093172 -93.093323 2.790161 20.016941 -49.446800 25.929440 23.299053 8.448509 -38.015411 -10.793164 -1.251458 -9.771338 24.423216 70.748085 41.415562 105.846497 84.015640 -122.001236 49.258213 42.004433 38.913494 4.948164 -19.393934 12.655511 20.086363 35.807789 -10.026222 -3.793907 -11.916205 0.453922 -5.578077 -50.411575 -18.580877 -2.326250 73.781517 12.079510 8.482018 0.152316 -11.866327 15.239164 
-0.280058 47.227093 -1.771764 2.509537 6.540402 -20.372761 24.799145 -9.912794 4.390910 -4.347287 -5.065248 5.421486 27.304804 -0.048828 -0.136727 -29.256996 8.479614 21.309875 12.231698 20.721279 19.789173 -92.033073 4.705190 19.983173 -50.008389 23.458136 20.568867 14.056042 -34.113327 -12.182237 -1.267584 -10.489091 24.390594 70.400314 43.246609 105.519371 76.014511 -124.348305 41.486389 39.391037 35.396133 0.069582 -18.886196 12.801995 20.196825 34.149281 -9.746840 -3.613354 -11.148003 0.585792 -6.227706 -50.652344 -18.827404 -2.392486 73.397446 12.128924 8.461248 0.742115 -11.486493 15.190207 
-0.425522 47.447693 -1.790424 2.996940 6.222322 -20.300474 24.799145 -9.912794 4.390910 -5.036036 -4.617209 5.525258 27.287149 -0.615231 -0.185641 -28.812906 9.243057 22.228209 12.873671 20.911018 19.485395 -90.969429 6.630735 19.988970 -50.685032 21.034334 17.862829 19.301918 -30.118006 -13.057989 -1.295509 -11.210344 24.349794 70.026764 45.062721 105.158234 69.097008 -127.216812 34.812420 37.245121 31.724833 -4.421745 -18.378485 12.938906 20.290062 32.484585 -9.458173 -3.402404 -10.389878 0.707124 -6.891923 -50.873959 -19.070377 -2.447842 72.993523 12.157914 8.452986 1.338633 -11.087045 15.189175 
-0.613974 47.662651 -1.747200 3.307024 5.972954 -20.103680 24.799145 -9.912794 4.390910 -5.888736 -4.286151 5.601650 27.866001 -1.191397 -0.224764 -28.456484 9.856949 22.927189 13.522424 20.996706 19.211321 -89.823715 8.335117 19.968401 -50.576324 19.021873 15.763170 23.779726 -27.941311 -13.582838 -1.455386 -11.690245 24.297388 69.272644 46.969414 104.664955 64.543648 -130.370911 30.404293 34.966789 27.264120 -8.546594 -17.605106 12.926113 20.391941 30.763763 -9.141830 -3.265160 -9.645563 0.783917 -7.381593 -50.219406 -19.294720 -2.548105 71.399063 12.118320 8.277586 1.832200 -10.509347 15.449636 
-0.802422 47.877586 -1.703972 3.627497 5.713362 -19.917021 24.799145 -9.912794 4.390910 -6.738914 -3.945522 5.667731 28.436218 -1.777323 -0.273609 -28.091978 10.472753 23.620951 14.159511 21.083694 18.937462 -88.665100 10.043244 19.975096 -50.542141 17.011591 13.690437 28.142557 -25.742914 -13.891517 -1.609416 -12.165422 24.238686 68.473572 48.857105 104.118011 60.647297 -133.718842 26.648840 33.124012 22.681736 -12.333392 -16.833586 12.916149 20.464733 29.011986 -8.833212 -3.088135 -8.869049 0.845080 -7.887339 -49.572460 -19.508490 -2.672837 69.804977 12.049920 8.138970 2.352983 -9.960228 15.695272 
-1.037125 48.036537 -1.599440 3.675781 5.540546 -19.596663 24.799145 -9.912794 4.390910 -7.573977 -3.877300 5.696295 29.367340 -2.246063 -0.303267 -27.886005 10.972856 24.321177 14.717516 21.011353 18.720837 -87.472282 11.420555 19.924318 -49.688251 15.604153 12.280818 31.971392 -24.414539 -14.211191 -1.797510 -12.190936 24.200726 66.846031 50.785339 103.157410 58.020817 -136.956558 24.866392 31.459888 18.737883 -14.940178 -15.906954 12.829923 20.551529 27.606321 -8.608468 -2.954231 -8.304771 0.848228 -8.293708 -48.130859 -19.715275 -2.825511 67.340439 11.806385 7.864883 2.938654 -9.036198 16.254091 
-1.271830 48.195473 -1.494904 3.712298 5.366841 -19.276487 24.799145 -9.912794 4.390910 -8.417112 -3.799431 5.715139 30.309175 -2.714795 -0.342338 -27.671227 11.456815 25.025015 15.271557 20.938576 18.519548 -86.260994 12.795349 19.912548 -48.878292 14.183690 10.895564 35.750618 -23.064329 -14.419310 -1.978823 -12.211982 24.155376 65.098114 52.705067 102.070595 55.656754 -140.239487 23.373198 30.006958 14.726989 -17.386026 -14.987756 12.749379 20.615843 26.183910 -8.369557 -2.813437 -7.728324 0.836932 -8.694051 -46.677475 -19.921026 -2.974247 64.889107 11.562274 7.603351 3.500797 -8.096583 16.785036 
-1.547405 48.269199 -1.335081 3.385792 5.288930 -18.823103 24.799145 -9.912794 4.390910 -8.995918 -4.062205 5.658669 31.299892 -3.095635 -0.381886 -27.553057 11.873791 25.797029 15.630478 20.442230 18.509768 -84.829277 13.824030 19.750961 -47.413860 13.422279 9.956695 38.980644 -22.057211 -14.585287 -2.019441 -11.797225 24.172512 62.186768 54.689781 100.306084 -125.882339 -36.579983 -156.486328 29.386820 12.079135 -18.516747 -14.050879 12.681890 20.679674 25.533466 -8.343266 -2.712708 -7.439569 0.577909 -8.837234 -44.578709 -20.097176 -3.159588 62.034279 10.966125 7.160649 4.097368 -6.421765 17.319473 
-1.822984 48.342915 -1.175257 3.055731 5.219759 -18.360006 24.799145 -9.912794 4.390910 -9.583966 -4.325027 5.601649 32.290611 -3.486239 -0.411179 -27.432373 12.282804 26.572237 15.979791 19.943451 18.502131 -83.391693 14.848413 19.609125 -45.965183 12.625469 9.046782 42.184593 -21.035669 -14.689350 -2.062302 -11.382104 24.179369 59.017262 56.618839 98.287941 -127.378670 -33.419407 -156.246994 28.824717 9.426895 -19.603428 -13.111995 12.620069 20.751303 24.905058 -8.305820 -2.642916 -7.209627 0.341365 -8.948827 -42.462711 -20.249727 -3.365833 59.198513 10.351622 6.782560 4.673952 -4.759695 17.818754 
-2.126741 48.293278 -0.991216 2.609324 5.322603 -17.714888 24.799145 -9.912794 4.390910 -10.033759 -4.948184 5.469281 32.986412 -3.652241 -0.430681 -27.318180 12.490589 27.350431 15.966033 19.236534 18.704180 -81.951912 15.673485 19.402603 -44.065872 12.253090 7.670871 44.812729 -20.093082 -14.512791 -2.126657 -10.744402 24.203678 54.664719 58.689854 95.463364 -128.394302 -30.533030 -154.914597 29.334515 8.008673 -19.735647 -12.685794 12.637106 20.801477 25.331100 -8.327748 -2.714899 -7.341734 -0.365541 -8.673110 -40.358040 -20.447628 -3.525953 56.708302 9.384756 6.310884 4.795792 -2.640155 18.162575 
-2.430501 48.243629 -0.807170 2.174790 5.425374 -17.070713 24.799145 -9.912794 4.390910 -10.481623 -5.571502 5.347300 33.682404 -3.828007 -0.450824 -27.204489 12.702141 28.121407 15.957589 18.536203 18.894238 -80.515442 16.511835 19.202976 -42.183327 11.845746 6.309219 47.431664 -19.165707 -14.290522 -2.187542 -10.115582 24.229067 49.843639 60.633877 92.161125 -129.466064 -27.671295 -153.558167 29.841719 6.590623 -19.881563 -12.254878 12.653828 20.844900 25.736050 -8.354771 -2.738865 -7.514524 -1.074237 -8.380137 -38.227890 -20.622345 -3.718317 54.237885 8.379013 5.894413 4.918041 -0.520987 18.479843 
-2.738370 48.100834 -0.593089 1.191326 5.995774 -16.459759 24.799145 -9.912794 4.390910 -10.341063 -6.799459 5.093450 33.823376 -4.101419 -0.480084 -27.160091 12.945156 28.795835 15.970912 17.814053 19.095615 -79.228394 17.263775 19.001728 -39.908169 11.332289 3.598699 48.952099 -18.523256 -13.671483 -1.954646 -9.582924 24.296164 44.314838 62.779118 88.247108 -130.043625 -25.261484 -151.630936 31.180948 5.991023 -19.465746 -11.699279 12.324197 20.784641 26.879179 -8.524955 -2.898860 -8.009544 -1.789836 -7.656579 -36.194298 -21.138227 -3.995612 52.775295 7.040463 5.411914 3.988840 1.715003 18.591040 
